<svg xmlns="http://www.w3.org/2000/svg" version="1.1" xmlns:xlink="http://www.w3.org/1999/xlink" xmlns:svgjs="http://svgjs.dev/svgjs" width="1000" height="901" viewBox="0 0 1000 901"><g transform="matrix(1,0,0,1,0.4267794610358919,0.3654509329708162)"><svg viewBox="0 0 274 247" data-background-color="#ffffff" preserveAspectRatio="xMidYMid meet" height="901" width="1000" xmlns="http://www.w3.org/2000/svg" xmlns:xlink="http://www.w3.org/1999/xlink"><g id="tight-bounds" transform="matrix(1,0,0,1,-0.11671842883856698,-0.09997365579206985)"><svg viewBox="0 0 274.23364106496274 247.2" height="247.2" width="274.23364106496274"><g><svg viewBox="0 0 274.23364106496274 247.2" height="247.2" width="274.23364106496274"><g><svg viewBox="0 0 274.23364106496274 247.2" height="247.2" width="274.23364106496274"><g id="textblocktransform"><svg viewBox="0 0 274.23364106496274 247.2" height="247.2" width="274.23364106496274" id="textblock"><g><svg viewBox="0 0 274.23364106496274 247.2" height="247.2" width="274.23364106496274"><path d="M273.592 53.02C272.302 27.36 268.628 20.227 268.628 20.227 257.347-6.202 243.269-0.506 230.622 3.292 208.292 3.446 186.053 9.091 163.775 12.119 117.014 12.581 69.854 4.986 23.326 23.717 18.956 29.464-4.534 24.846 0.777 56.304 2.17 69.39 7.249 83.913 7.095 95.922 7.791 98.026 8.758 93.202 9.17 96.23 10.614 104.39 12.974 100.541 14.907 105.365 12.213 118.246 14.147 128.971 15.99 140.21 12.741 143.135 8.577 141.749 6.708 151.449 6.514 158.479 5.47 157.145 4.323 156.837 3.485 156.632 1.796 157.402 2.08 159.608 3.046 167.152-1.105 171.514 1.499 178.904-0.293 186.91 2.737 193.838 2.324 202.511 2.273 204.255 2.557 205.744 3.008 206.154 5.006 208.361 2.092 212.672 2.402 217.342 22.901 249.262 45.14 227.195 66.141 241.872 71.595 231.608 67.495 245.516 69.674 243.36 71.376 240.846 72.613 251.263 74.534 245.362 74.831 243.668 74.38 239.665 75.437 240.435 75.991 240.846 76.481 240.743 76.558 238.382 76.674 234.841 75.656 237.048 75.385 235.201 78.312 225.861 77.59 248.081 80.336 247.158 80.207 244.438 79.408 240.538 81.045 241.051 82.669 237.151 82.721 233.918 84.165 242.693 84.216 244.592 84.474 245.926 84.887 246.85 89.399 237.305 93.886 250.237 98.617 245.926 101.518 241.205 104.303 248.492 107.242 246.696 108.273 245.259 109.318 242.693 110.31 247.004 122.468 247.928 135.425 244.079 146.95 247.158 177.75 241.41 210.664 249.518 243.14 241.923 250.798 238.998 258.753 234.841 266.217 231.506 266.217 231.506 272.264 222.371 272.264 181.316S273.553 145.393 273.746 112.703C273.94 80.013 274.842 78.679 273.553 53.02Z" opacity="1" fill="#0718c4" data-fill-palette-color="tertiary"></path><g transform="matrix(1,0,0,1,55.76832,26.230666666666668)"><svg width="162.69700106496273" viewBox="0.5400000214576721 -30.489999771118164 25.529998779296875 30.559999465942383" height="194.73866666666666" data-palette-color="#ffffff"><path d="M2.39 0.07Q1.42 0.07 0.98-0.11 0.54-0.29 0.54-0.66L0.54-0.66Q0.54-0.83 0.66-1.25L0.66-1.25 10.94-29.79Q11.18-30.49 12.67-30.49L12.67-30.49 13.94-30.49Q15.43-30.49 15.67-29.79L15.67-29.79 25.95-1.22Q26.07-0.95 26.07-0.66L26.07-0.66Q26.07 0.07 24.24 0.07L24.24 0.07 23.88 0.07Q22.36 0.07 22.12-0.61L22.12-0.61 19.58-7.74 6.84-7.74 4.35-0.61Q4.13 0.07 2.61 0.07L2.61 0.07 2.39 0.07ZM8.03-11.04L18.41-11.04 13.87-23.95Q13.67-24.49 13.55-25.17 13.43-25.85 13.33-26.49L13.33-26.49 13.23-26.49Q12.94-24.85 12.57-23.95L12.57-23.95 8.03-11.04Z" opacity="1" transform="matrix(1,0,0,1,0,0)" fill="#ffffff" class="undefined-text-0" data-fill-palette-color="quaternary" id="text-0"></path></svg></g></svg></g></svg></g></svg></g><g></g></svg></g><defs></defs></svg><rect width="274.23364106496274" height="247.2" fill="none" stroke="none" visibility="hidden"></rect></g></svg></g></svg>